<?xml version="1.0" standalone="no"?>
<!DOCTYPE svg PUBLIC "-//W3C//DTD SVG 20010904//EN"
 "http://www.w3.org/TR/2001/REC-SVG-20010904/DTD/svg10.dtd">
<svg version="1.0" xmlns="http://www.w3.org/2000/svg"
 width="512.000000pt" height="512.000000pt" viewBox="0 0 512.000000 512.000000"
 preserveAspectRatio="xMidYMid meet">
<metadata>
Created by potrace 1.11, written by Peter Selinger 2001-2013
</metadata>
<g transform="translate(0.000000,512.000000) scale(0.100000,-0.100000)"
fill="#000000" stroke="none">
<path d="M4288 4953 c-50 -13 -61 -109 -15 -135 14 -8 79 -15 175 -18 l153 -5
-558 -557 -558 -558 -359 0 -360 0 -600 -600 -601 -600 -319 0 -320 0 -383
-383 -383 -383 0 -740 c0 -406 3 -749 6 -762 14 -50 34 -52 434 -52 452 0 440
-3 440 116 0 30 1 54 3 54 2 0 48 7 103 15 54 8 122 17 149 21 28 3 52 7 55 9
3 2 34 6 70 10 36 4 72 9 82 10 12 3 512 -110 668 -150 8 -2 53 -13 100 -23
47 -11 146 -34 220 -52 74 -17 144 -34 155 -36 11 -2 70 -16 131 -31 l111 -26
154 57 c85 32 168 64 184 71 36 16 480 186 595 229 65 24 435 167 455 176 22
9 217 84 225 86 3 0 14 4 25 9 11 5 72 28 135 52 151 57 169 66 207 100 73 66
107 146 105 245 -5 151 -131 282 -283 293 -54 4 -56 3 -584 -135 -110 -28
-207 -53 -215 -55 -8 -2 -85 -22 -170 -44 -85 -23 -289 -77 -454 -120 l-298
-77 -167 68 c-91 37 -172 68 -180 68 -31 0 1 12 99 37 133 33 159 44 205 88
140 136 84 374 -102 436 -33 11 -196 9 -413 -6 -36 -2 -118 -6 -183 -10 -65
-3 -151 -7 -190 -10 -40 -2 -130 -7 -202 -11 -71 -3 -150 -8 -175 -10 -25 -1
-174 -6 -331 -10 l-286 -7 -5 62 c-7 100 7 96 -320 99 l-282 3 279 279 280
280 308 0 c249 0 313 3 335 14 15 8 290 278 612 600 l585 586 360 0 360 0 582
582 583 583 0 -147 c0 -81 4 -158 9 -171 5 -13 24 -30 41 -37 27 -11 36 -11
65 3 20 9 37 26 40 39 3 13 5 141 3 285 -3 236 -5 264 -21 280 -16 16 -43 18
-285 20 -147 0 -275 -1 -284 -4z"/>
<path d="M3695 3349 c-248 -36 -501 -195 -645 -404 -60 -87 -128 -241 -144
-325 -3 -14 -9 -47 -15 -75 -9 -48 -8 -269 2 -310 3 -11 10 -41 16 -67 33
-145 120 -302 231 -421 234 -251 560 -351 915 -282 91 18 241 84 331 145 148
102 289 283 354 455 49 128 70 332 49 475 -54 378 -340 693 -718 791 -86 23
-280 32 -376 18z"/>
</g>
</svg>
